<svg width="150" height="34" viewBox="0 0 150 34" fill="none" xmlns="http://www.w3.org/2000/svg">
<path fill-rule="evenodd" clip-rule="evenodd" d="M4.37165 4.38758C3.63721 6.39851 2.79786 8.3036 0.349732 8.51527L0 11.0907H2.4831V20.5103C2.4831 22.9799 2.44812 26.3667 7.90394 26.3667C9.54768 26.3667 11.2963 25.8728 12.3455 25.1319L11.2963 22.4154C10.7368 22.7682 9.86244 23.1563 8.91816 23.1563C7.48426 23.1563 6.64491 22.5212 6.64491 20.3692V11.0907H10.9466L11.2963 8.1272H6.64491V4.38758H4.37165ZM16.3675 21.9215C16.3675 22.8035 16.0177 23.0151 15.3532 23.0857L14.1991 23.1915V25.8728H23.5719V23.0857L20.5293 22.9446V14.7597C20.5293 12.7135 21.8233 11.1965 23.7118 11.1965C24.0965 11.1965 24.3413 11.2318 24.6561 11.3729C24.9359 11.514 25.0058 11.8315 25.0058 12.2549V13.8778L28.2583 13.6308V8.37416C27.1042 7.80969 26.055 7.59801 24.9009 7.59801C22.5927 7.59801 20.7391 9.00919 19.9347 10.7732V8.1272H14.0242V10.9848L15.4931 11.0907C16.1576 11.126 16.3675 11.3729 16.3675 12.1491V21.9215ZM36.3371 8.1272H30.0769V11.0554L31.301 11.126C31.9655 11.126 32.1753 11.3729 32.1753 12.1491V21.9568C32.1753 22.8035 31.7906 23.0151 31.1611 23.0857L30.007 23.1915V25.8728H38.3306V23.0504L36.3371 22.9446V8.1272ZM31.1961 3.22335C31.1961 4.70509 32.2453 5.79875 33.854 5.79875C35.4278 5.79875 36.547 4.70509 36.547 3.22335C36.547 1.74162 35.4278 0.577393 33.889 0.577393C32.2453 0.577393 31.1961 1.74162 31.1961 3.22335ZM40.3241 10.9496L41.793 11.0554C42.4225 11.0907 42.6673 11.3729 42.6673 12.1491V21.9215C42.6673 22.8035 42.3176 23.0151 41.6531 23.0857L40.499 23.1915V25.8728H48.8226V23.0504L46.8291 22.9446V14.4069C46.8291 12.5724 48.1231 10.8437 50.4313 10.8437C52.8095 10.8437 53.2991 12.3255 53.2991 14.6539V21.9215C53.2991 22.8035 52.9494 23.0151 52.2849 23.0857L51.1308 23.1915V25.8728H59.4544V23.0504L57.4609 22.9446V13.7366C57.4609 9.57366 55.3975 7.59801 51.9002 7.59801C49.592 7.59801 47.4586 8.65639 46.2346 10.4204V8.1272H40.3241V10.9496ZM68.6524 33.4226C73.8984 33.4226 76.3115 31.0236 76.7312 25.8375C76.8361 24.5674 76.8011 23.2268 76.8011 21.992V8.90335C74.7377 8.02136 72.0098 7.59801 70.3311 7.59801C65.0501 7.59801 61.2381 10.5968 61.2381 16.9823C61.2381 21.0042 62.9867 25.2377 68.0928 25.2377C69.8065 25.2377 71.5551 24.6733 72.7442 23.2621V25.2025C72.7442 28.1659 71.9049 30.3886 68.6873 30.3886C67.6382 30.3886 66.8687 30.2827 66.2042 30.0358C65.5747 29.7888 65.3999 29.436 65.3999 28.7657V27.0723L62.0774 27.3545V32.2584C63.5463 32.9992 66.4491 33.4226 68.6524 33.4226ZM72.7442 18.6758C72.7442 20.8278 71.1355 22.1332 69.177 22.1332C65.9245 22.1332 65.5398 18.958 65.5398 16.559C65.5398 12.9958 67.0436 10.6673 69.9464 10.6673C70.9256 10.6673 71.9398 10.8084 72.7442 11.0907V18.6758ZM93.973 8.83279C91.4549 7.88024 88.9018 7.59801 87.7477 7.59801C81.4526 7.59801 78.5148 11.5493 78.5148 17.7585C78.5148 22.8035 80.5782 26.3314 85.5094 26.3314C87.433 26.3314 89.2166 25.3789 90.3008 23.7913L90.4057 23.8266V25.8728H95.9664V23.0504L94.8473 22.9799C94.1828 22.9446 93.973 22.7329 93.973 21.9568V8.83279ZM89.9161 20.2633C89.9161 21.7804 88.5871 23.3327 86.4188 23.3327C83.481 23.3327 82.7815 20.5456 82.7815 17.6174C82.7815 13.8072 83.9007 10.6673 87.2231 10.6673C88.3073 10.6673 89.3915 10.879 89.9161 11.126V20.2633ZM100.058 29.2243C100.058 30.1063 99.7086 30.318 99.0441 30.3886L97.89 30.4944V33.1756H106.913V30.3886L104.08 30.2474V25.3789C104.99 25.9433 106.458 26.402 107.822 26.402C112.439 26.402 115.481 23.0504 115.481 16.559C115.481 10.244 113.033 7.59801 109.151 7.59801C106.179 7.59801 104.255 9.22086 103.626 10.4204V8.1272H97.7151V10.9848L99.184 11.0907C99.8484 11.0907 100.058 11.3729 100.058 12.1491V29.2243ZM111.145 16.9118C111.145 19.9811 110.131 23.0504 107.158 23.0504C106.249 23.0504 104.99 22.7682 104.08 22.1684V14.0542C104.08 12.4313 105.619 11.0201 107.612 11.0201C109.466 11.0201 111.145 12.2196 111.145 16.9118ZM119.573 29.2243C119.573 30.1063 119.224 30.318 118.559 30.3886L117.405 30.4944V33.1756H126.428V30.3886L123.595 30.2474V25.3789C124.505 25.9433 125.973 26.402 127.337 26.402C131.954 26.402 134.997 23.0504 134.997 16.559C134.997 10.244 132.548 7.59801 128.666 7.59801C125.694 7.59801 123.77 9.22086 123.141 10.4204V8.1272H117.23V10.9848L118.699 11.0907C119.363 11.0907 119.573 11.3729 119.573 12.1491V29.2243ZM130.66 16.9118C130.66 19.9811 129.646 23.0504 126.673 23.0504C125.764 23.0504 124.505 22.7682 123.595 22.1684V14.0542C123.595 12.4313 125.134 11.0201 127.128 11.0201C128.981 11.0201 130.66 12.2196 130.66 16.9118ZM145.593 10.8084C146.223 11.0554 146.398 11.3376 146.398 12.0079V13.4897L149.545 13.2427V9.00919C148.181 8.33888 146.118 7.59801 143.74 7.59801C140.068 7.59801 136.99 9.53838 136.99 13.2074C136.99 17.1235 139.823 18.0055 142.411 18.6758C144.299 19.1697 145.838 19.4872 145.838 21.1806C145.838 22.6623 144.824 23.3327 143.075 23.3327C142.236 23.3327 141.432 23.2268 140.767 22.9799C140.138 22.7329 139.963 22.4507 139.963 21.7804V20.0869L136.815 20.3339V25.2377C138.284 25.9786 141.047 26.3314 143.25 26.3314C146.992 26.3314 150 24.3558 150 20.6867C150 16.8412 146.992 15.9592 144.264 15.1831C142.621 14.7245 140.942 14.2305 140.942 12.6077C140.942 11.1965 142.061 10.4909 143.565 10.4909C144.404 10.4909 144.929 10.5615 145.593 10.8084Z" fill="#FEFEFE"/>
</svg>
